<mxGraphModel dx="2031" dy="1114" grid="1" gridSize="10" guides="1" tooltips="1" connect="1" arrows="1" fold="1" page="1" pageScale="1" pageWidth="1100" pageHeight="850" math="0" shadow="0">
  <root>
    <mxCell id="0"/>
    <mxCell id="1" parent="0"/>
    <mxCell id="EvmBXiP7fu1TzkwDjEBd-1" value="&lt;font style=&quot;font-size: 72px&quot;&gt;&lt;b&gt;LitePog Wiring Diagram&lt;/b&gt;&lt;/font&gt;" style="text;html=1;strokeColor=none;fillColor=none;align=center;verticalAlign=middle;whiteSpace=wrap;rounded=0;" vertex="1" parent="1">
      <mxGeometry x="60" y="160" width="980" height="50" as="geometry"/>
    </mxCell>
    <mxCell id="EvmBXiP7fu1TzkwDjEBd-8" value="" style="group" vertex="1" connectable="0" parent="1">
      <mxGeometry x="250" y="320" width="220" height="80" as="geometry"/>
    </mxCell>
    <mxCell id="EvmBXiP7fu1TzkwDjEBd-3" value="&lt;div style=&quot;font-size: 12px&quot;&gt;&lt;font style=&quot;font-size: 12px&quot;&gt;logic_handle&lt;/font&gt;&lt;/div&gt;" style="rounded=0;whiteSpace=wrap;html=1;fontSize=72;verticalAlign=middle;" vertex="1" parent="EvmBXiP7fu1TzkwDjEBd-8">
      <mxGeometry width="220" height="80" as="geometry"/>
    </mxCell>
    <mxCell id="EvmBXiP7fu1TzkwDjEBd-4" value="&lt;div style=&quot;font-size: 12px&quot; align=&quot;center&quot;&gt;&lt;font style=&quot;font-size: 12px&quot;&gt;JNPX1&lt;/font&gt;&lt;/div&gt;" style="rounded=0;whiteSpace=wrap;html=1;fontSize=72;align=center;verticalAlign=middle;" vertex="1" parent="EvmBXiP7fu1TzkwDjEBd-8">
      <mxGeometry x="170" y="10" width="50" height="20" as="geometry"/>
    </mxCell>
    <mxCell id="EvmBXiP7fu1TzkwDjEBd-5" value="JBC1" style="rounded=0;whiteSpace=wrap;html=1;fontSize=12;align=center;verticalAlign=middle;" vertex="1" parent="EvmBXiP7fu1TzkwDjEBd-8">
      <mxGeometry y="30" width="50" height="20" as="geometry"/>
    </mxCell>
    <mxCell id="EvmBXiP7fu1TzkwDjEBd-7" value="JHI1" style="rounded=0;whiteSpace=wrap;html=1;fontSize=12;align=center;verticalAlign=middle;" vertex="1" parent="EvmBXiP7fu1TzkwDjEBd-8">
      <mxGeometry x="170" y="50" width="50" height="20" as="geometry"/>
    </mxCell>
    <mxCell id="EvmBXiP7fu1TzkwDjEBd-15" value="" style="group" vertex="1" connectable="0" parent="1">
      <mxGeometry x="630" y="320" width="220" height="80" as="geometry"/>
    </mxCell>
    <mxCell id="EvmBXiP7fu1TzkwDjEBd-11" value="&lt;div style=&quot;font-size: 12px&quot;&gt;&lt;font style=&quot;font-size: 12px&quot;&gt;power_handle&lt;/font&gt;&lt;/div&gt;" style="rounded=0;whiteSpace=wrap;html=1;fontSize=72;verticalAlign=middle;" vertex="1" parent="EvmBXiP7fu1TzkwDjEBd-15">
      <mxGeometry width="220" height="80" as="geometry"/>
    </mxCell>
    <mxCell id="EvmBXiP7fu1TzkwDjEBd-12" value="&lt;div style=&quot;font-size: 12px&quot; align=&quot;center&quot;&gt;&lt;font style=&quot;font-size: 12px&quot;&gt;JNPX1&lt;/font&gt;&lt;/div&gt;" style="rounded=0;whiteSpace=wrap;html=1;fontSize=72;align=center;verticalAlign=middle;" vertex="1" parent="EvmBXiP7fu1TzkwDjEBd-15">
      <mxGeometry y="10" width="50" height="20" as="geometry"/>
    </mxCell>
    <mxCell id="EvmBXiP7fu1TzkwDjEBd-13" value="JBC1" style="rounded=0;whiteSpace=wrap;html=1;fontSize=12;align=center;verticalAlign=middle;" vertex="1" parent="EvmBXiP7fu1TzkwDjEBd-15">
      <mxGeometry x="170" y="30" width="50" height="20" as="geometry"/>
    </mxCell>
    <mxCell id="EvmBXiP7fu1TzkwDjEBd-14" value="JHI1" style="rounded=0;whiteSpace=wrap;html=1;fontSize=12;align=center;verticalAlign=middle;" vertex="1" parent="EvmBXiP7fu1TzkwDjEBd-15">
      <mxGeometry y="50" width="50" height="20" as="geometry"/>
    </mxCell>
    <mxCell id="EvmBXiP7fu1TzkwDjEBd-17" value="button" style="ellipse;whiteSpace=wrap;html=1;aspect=fixed;fontSize=12;" vertex="1" parent="1">
      <mxGeometry x="150" y="330" width="60" height="60" as="geometry"/>
    </mxCell>
    <mxCell id="EvmBXiP7fu1TzkwDjEBd-19" value="button" style="ellipse;whiteSpace=wrap;html=1;aspect=fixed;fontSize=12;" vertex="1" parent="1">
      <mxGeometry x="890" y="330" width="60" height="60" as="geometry"/>
    </mxCell>
    <mxCell id="EvmBXiP7fu1TzkwDjEBd-21" value="" style="endArrow=none;html=1;rounded=0;fontSize=12;exitX=0;exitY=0.5;exitDx=0;exitDy=0;entryX=1;entryY=0.5;entryDx=0;entryDy=0;" edge="1" parent="1" source="EvmBXiP7fu1TzkwDjEBd-19" target="EvmBXiP7fu1TzkwDjEBd-13">
      <mxGeometry width="50" height="50" relative="1" as="geometry">
        <mxPoint x="690" y="650" as="sourcePoint"/>
        <mxPoint x="390" y="480" as="targetPoint"/>
      </mxGeometry>
    </mxCell>
    <mxCell id="EvmBXiP7fu1TzkwDjEBd-23" value="" style="endArrow=none;html=1;rounded=0;fontSize=12;exitX=1;exitY=0.5;exitDx=0;exitDy=0;entryX=0;entryY=0.5;entryDx=0;entryDy=0;" edge="1" parent="1" source="EvmBXiP7fu1TzkwDjEBd-17" target="EvmBXiP7fu1TzkwDjEBd-5">
      <mxGeometry width="50" height="50" relative="1" as="geometry">
        <mxPoint x="190" y="470" as="sourcePoint"/>
        <mxPoint x="240" y="420" as="targetPoint"/>
      </mxGeometry>
    </mxCell>
    <mxCell id="EvmBXiP7fu1TzkwDjEBd-24" value="" style="endArrow=none;html=1;rounded=0;fontSize=12;entryX=0;entryY=0.5;entryDx=0;entryDy=0;exitX=1;exitY=0.5;exitDx=0;exitDy=0;" edge="1" parent="1" source="EvmBXiP7fu1TzkwDjEBd-7" target="EvmBXiP7fu1TzkwDjEBd-14">
      <mxGeometry width="50" height="50" relative="1" as="geometry">
        <mxPoint x="460" y="500" as="sourcePoint"/>
        <mxPoint x="580" y="460" as="targetPoint"/>
        <Array as="points">
          <mxPoint x="560" y="380"/>
        </Array>
      </mxGeometry>
    </mxCell>
    <mxCell id="EvmBXiP7fu1TzkwDjEBd-26" value="interconnect" style="edgeLabel;html=1;align=center;verticalAlign=middle;resizable=0;points=[];fontSize=12;" vertex="1" connectable="0" parent="EvmBXiP7fu1TzkwDjEBd-24">
      <mxGeometry y="1" relative="1" as="geometry">
        <mxPoint as="offset"/>
      </mxGeometry>
    </mxCell>
    <mxCell id="EvmBXiP7fu1TzkwDjEBd-29" style="edgeStyle=orthogonalEdgeStyle;rounded=0;orthogonalLoop=1;jettySize=auto;html=1;exitX=1;exitY=0.5;exitDx=0;exitDy=0;entryX=0;entryY=0.5;entryDx=0;entryDy=0;fontSize=12;startArrow=none;startFill=0;" edge="1" parent="1" source="EvmBXiP7fu1TzkwDjEBd-4" target="EvmBXiP7fu1TzkwDjEBd-12">
      <mxGeometry relative="1" as="geometry"/>
    </mxCell>
    <mxCell id="EvmBXiP7fu1TzkwDjEBd-31" value="&lt;div&gt;neopixel&lt;/div&gt;&lt;div&gt;(data travels in &lt;br&gt;&lt;/div&gt;&lt;div&gt;direction of arrow)&lt;br&gt;&lt;/div&gt;" style="edgeLabel;html=1;align=center;verticalAlign=middle;resizable=0;points=[];fontSize=12;" vertex="1" connectable="0" parent="EvmBXiP7fu1TzkwDjEBd-29">
      <mxGeometry x="0.0525" relative="1" as="geometry">
        <mxPoint as="offset"/>
      </mxGeometry>
    </mxCell>
  </root>
</mxGraphModel>